<!-- Simple logo lockup: flame mark + logotype -->
<svg xmlns="http://www.w3.org/2000/svg" width="360" height="80" viewBox="0 0 360 80" role="img" aria-labelledby="title">
  <title id="title">Roastify AI</title>
  <defs>
    <linearGradient id="g" x1="0" x2="1" y1="0" y2="1">
      <stop offset="0" stop-color="#9B5CF6"/>
      <stop offset="1" stop-color="#6D28D9"/>
    </linearGradient>
  </defs>

  <g transform="translate(8,8)">
    <g transform="translate(0,0)">
      <path d="M34 4c8 8 20 18 20 36 0 24-18 34-18 52 0 0-16-12-16-34 0-20 14-28 14-44 0 0-4 5-4 12 0 7 6 12 6 20 0 10-8 14-8 14" fill="url(#g)"/>
    </g>
    <g transform="translate(72,12)">
      <text x="0" y="28" font-family="Poppins,Inter,Arial" font-weight="700" font-size="28" fill="#0F172A">Roastify</text>
      <text x="0" y="50" font-family="Inter,Arial" font-weight="600" font-size="12" fill="#00A3FF">AI</text>
    </g>
  </g>
</svg>
